<?xml version="1.0" encoding="UTF-8" standalone="no"?>
<!-- Created with Inkscape (http://www.inkscape.org/) -->

<svg
   version="1.1"
   id="svg1"
   width="935.29333"
   height="793.67999"
   viewBox="0 0 935.29333 793.67999"
   sodipodi:docname="LOGO_Hex F8F7F0_.eps"
   xmlns:inkscape="http://www.inkscape.org/namespaces/inkscape"
   xmlns:sodipodi="http://sodipodi.sourceforge.net/DTD/sodipodi-0.dtd"
   xmlns="http://www.w3.org/2000/svg"
   xmlns:svg="http://www.w3.org/2000/svg">
  <defs
     id="defs1" />
  <sodipodi:namedview
     id="namedview1"
     pagecolor="#ffffff"
     bordercolor="#000000"
     borderopacity="0.25"
     inkscape:showpageshadow="2"
     inkscape:pageopacity="0.0"
     inkscape:pagecheckerboard="0"
     inkscape:deskcolor="#d1d1d1">
    <inkscape:page
       x="0"
       y="0"
       inkscape:label="1"
       id="page1"
       width="935.29333"
       height="793.67999"
       margin="0"
       bleed="0" />
  </sodipodi:namedview>
  <g
     id="g1"
     inkscape:groupmode="layer"
     inkscape:label="1">
    <g
       id="group-R5">
      <path
         id="path2"
         d="m 2498.79,5952.57 c 305.16,-8.89 606.01,-35.2 898.19,-127.92 416.06,-132.02 723.93,-400.26 956.6,-761.81 218.92,-340.19 364.65,-712.7 478.8,-1098.79 59.41,-200.93 118.08,-402.09 179.25,-602.49 142.38,-466.53 443.53,-791.53 884.74,-992.86 204.21,-93.18 412.12,-179.81 596.33,-311.71 260.26,-186.36 449.37,-423.7 503.9,-745.63 C 7106.61,661.883 6704.16,126.25 6101.8,19.75 5689.97,-53.0586 5337.01,80.5508 5021.89,336.969 4741.03,565.52 4539.45,854.563 4391.83,1182.49 c -66.2,147.07 -120.68,299.64 -191.57,444.28 -47.1,96.11 -103.83,191.37 -173.94,271.54 -137.88,157.66 -313.7,195.9 -512.57,125.54 -139.49,-49.36 -257.52,-132.88 -363.58,-232.5 -231.95,-217.87 -458.95,-441.03 -691.28,-658.5 C 2236.73,924.891 2002.39,731.641 1712.5,623.891 1265.03,457.563 834.129,481.219 442.355,772.281 153.984,986.52 4.58984,1279.62 0.140625,1643.08 -3.03906,1902.83 47.1836,2146.36 207.391,2357.97 c 185.355,244.83 435.41,381.82 734.968,430.86 330.481,54.1 660.401,39.41 989.701,-15.35 418.61,-69.62 839.72,-107.22 1263.84,-71.43 133.57,11.26 268.31,33.42 397.29,69.36 315.26,87.84 480.15,295.32 496.18,622.15 16.17,329.79 -34.27,650.97 -158.46,958.18 -54.72,135.34 -133.96,254.58 -266.91,325.88 -165.36,88.68 -329.73,53.76 -490.74,-15 -164.28,-70.15 -288.67,-194.34 -417.47,-312.95 -236.45,-217.73 -469.42,-439.79 -714.51,-647.45 -220.96,-187.2 -473.53,-324.39 -765.25,-366.61 -399.046,-57.75 -748.51,40.79 -1014.952,358.27 -181.6288,216.41 -223.0233,471.65 -173.6092,743.14 86.2032,473.62 361.7582,818.59 753.8632,1077.32 336.598,222.11 712.618,342.21 1110.218,393.12 181.36,23.22 364.76,30.57 547.24,45.11"
         style="fill:#f5f6ea;fill-opacity:1;fill-rule:nonzero;stroke:none"
         transform="matrix(0.13333333,0,0,-0.13333333,0,793.68)" />
    </g>
  </g>
</svg>
